<svg width="206" height="60" viewBox="0 0 206 60" fill="none" xmlns="http://www.w3.org/2000/svg">
<path d="M46.3662 59.7184C43.9298 59.7184 41.6615 58.3974 40.2999 56.1812C38.892 53.8926 38.7327 51.1723 39.8741 48.9069L48.8953 31.0875C50.7696 27.2983 54.5589 24.9488 58.7856 24.9488H73.3806C71.4859 28.8337 57.7253 57.0735 57.65 57.2328L62.2851 51.2592C62.1721 52.3021 62.1895 53.2784 62.3315 54.2634C62.7747 57.256 65.0489 58.9391 66.4858 59.7155L58.9304 59.7126V59.7155H46.3662V59.7184Z" fill="white"/>
<path d="M79.8409 59.7213C77.3552 59.7213 75.0927 58.4582 73.792 56.3405C72.4883 54.2228 72.3782 51.6358 73.4994 49.4138C73.5312 49.3443 76.3297 43.3041 79.2383 37.0843L79.302 37.0147L85.3075 24.297L85.3133 24.2854L90.1744 13.9982L126.372 14.0011C129.727 14.0011 132.667 15.5829 134.443 18.3437C136.587 21.6723 136.72 26.1945 134.794 30.4386C131.384 37.9505 127.01 47.2932 122.479 56.7461C122.348 57.0184 122.279 57.1662 122.273 57.1749L122.76 57.4356L126.839 51.1404C126.737 52.1834 126.766 53.1596 126.923 54.1446C127.412 57.172 129.767 58.9188 131.204 59.7184H79.8409V59.7213ZM97.1561 42.6494C96.71 43.5735 96.7679 44.6454 97.3126 45.5145C97.8572 46.3836 98.7958 46.9022 99.8213 46.9022H105.636L112.916 31.6727C113.313 30.8442 113.258 29.8853 112.768 29.1089C112.278 28.3325 111.441 27.8661 110.523 27.8661L104.323 27.8545L97.1561 42.6494Z" fill="white"/>
<path d="M82.9494 0C82.9494 0 79.9075 13.6448 65.3444 13.6448L61.9028 13.7288C52.1284 13.7288 44.9438 18.222 40.2942 24.2043C41.1459 22.9064 42.0411 21.6752 42.9594 20.4904L43.0318 20.389L43.0521 20.3716C54.3417 5.94751 70.2229 0 79.9423 0H82.9494Z" fill="white"/>
<path d="M181.192 59.7184C180.555 59.7184 179.955 59.6141 179.454 59.5098C179.184 59.4548 178.915 59.391 178.648 59.3215C175.688 58.5451 173.66 57.0126 172.617 54.7704C171.487 52.3427 171.623 49.1908 172.982 46.3343C173.086 46.1142 173.196 45.8969 173.312 45.6912C176.765 39.5062 180.995 31.5945 182.209 29.3175L182.976 27.8748H182.516C182.496 27.8748 182.026 27.8748 181.218 27.9733C179.323 28.1992 175.557 28.9611 171.643 31.5221C166.933 34.6016 163.462 39.2947 161.33 45.4681C158.416 53.9157 163.651 58.4061 165.58 59.7213H145.545C144.951 59.7213 144.371 59.6518 143.821 59.5156C140.689 58.7479 138.415 55.7322 138.415 52.3456C138.415 51.2158 138.673 50.1294 139.183 49.1154L148.03 28.3557L150.304 23.5032C151.698 21.0089 154.241 17.6021 158.393 15.6234C160.696 14.5255 163.277 13.9692 166.07 13.9692L177.461 14.0011L172.935 23.5322L173.767 22.976C180.317 18.6073 185.051 16.5418 188.443 15.2294C190.572 14.4067 192.661 13.9866 194.648 13.9866C199.779 13.9866 203.128 16.7909 204.124 18.6739C205.277 20.8496 206.427 24.5983 203.125 32.0261C199.944 39.173 192.044 56.8794 192.044 56.8794L196.61 50.842C196.508 51.885 196.54 52.8612 196.699 53.8433C197.128 56.5028 199.005 58.296 200.515 59.336L200.538 59.3534C200.718 59.478 200.909 59.5996 201.106 59.7184H181.192V59.7184Z" fill="white"/>
<path d="M17.7006 13.7288L23.8885 13.7027L4.67863 49.2922H4.68152C2.85932 52.9076 4.31071 57.001 7.40179 58.913C7.42207 58.9246 7.43945 58.9333 7.45973 58.942C9.44416 60.0602 11.4749 59.9994 11.4749 59.9994H24.5577V59.9907L33.4138 59.9936C33.4138 59.9936 28.8887 58.4553 28.2572 54.2228C28.0631 52.8931 28.1065 51.5634 28.402 50.0657L23.5583 57.3342C23.8248 56.7606 37.6376 28.2311 37.6376 28.2311C38.4053 26.8405 39.286 25.4877 40.2912 24.2014C51.6097 6.98463 69.4001 0 79.9422 0H63.7858C50.9811 0 43.7995 7.35834 42.829 8.05651L41.0068 5.92723C42.238 4.88431 44.0544 3.34601 47.6496 1.42242C48.3564 1.04291 48.0494 0 47.244 0H0C0 0.00289698 3.14033 13.7288 17.7006 13.7288ZM13.4855 56.7345L10.9477 55.483L18.2278 42.3075L20.612 43.6778L13.4855 56.7345ZM31.7799 17.7788L34.3321 13.6622C34.8623 12.8047 36.3282 10.8347 37.6666 9.26165L39.8799 11.0549C35.7546 15.664 32.0001 23.1208 32.0001 23.1208L29.4536 21.8751C29.4536 21.8751 30.8123 19.4793 31.7799 17.7788ZM29.8708 26.9825L22.6979 40.0131L20.2499 38.5936L27.4055 25.6006L29.8708 26.9825Z" fill="url(#paint0_linear)"/>
<defs>
<linearGradient id="paint0_linear" x1="0" y1="29.9999" x2="79.9419" y2="29.9999" gradientUnits="userSpaceOnUse">
<stop stop-color="#FF4655"/>
<stop offset="0.9944" stop-color="#F77250"/>
<stop offset="1" stop-color="#F77250"/>
</linearGradient>
</defs>
</svg>
